<?xml version="1.0" encoding="utf-8"?>
<!-- Generator: Adobe Illustrator 25.4.1, SVG Export Plug-In . SVG Version: 6.00 Build 0)  -->
<svg version="1.1" id="Warstwa_1" xmlns="http://www.w3.org/2000/svg" xmlns:xlink="http://www.w3.org/1999/xlink" x="0px" y="0px"
	 viewBox="0 0 400 400" style="enable-background:new 0 0 400 400;" xml:space="preserve">
<style type="text/css">
	.st0{fill:#FFFFFF;}
</style>
<g>
	<path class="st0" d="M51.46,70.71c0-2.5,2.03-4.52,4.52-4.52H92.4c1.98,0,3.58,1.6,3.58,3.58v0v2.18c0,1.98-1.6,3.58-3.58,3.58h0
		H62.1v24h24c1.98,0,3.58,1.6,3.59,3.58v0v2.17c0,1.98-1.61,3.58-3.59,3.58h-24v24.65h32.15c1.98,0,3.58,1.6,3.58,3.58v0v2.17
		c0,1.98-1.6,3.58-3.58,3.58h0H55.99c-2.5,0-4.52-2.03-4.52-4.52V70.71z"/>
	<path class="st0" d="M119.66,139.57c0,2.39-1.2,3.58-3.58,3.58h-3.37c-2.39,0-3.58-1.2-3.58-3.58V64.49c0-2.39,1.19-3.58,3.58-3.58
		h3.37c2.39,0,3.58,1.19,3.58,3.58V139.57z"/>
	<path class="st0" d="M179.57,87.9h-2.6c-2.39,0-3.59,1.01-3.59,3.04v2.73c0.01,0.72,0.08,1.45,0.22,2.16h-0.22
		c-0.81-1.76-2-3.31-3.47-4.56c-1.58-1.33-3.36-2.41-5.27-3.2c-2.68-1.06-5.54-1.56-8.42-1.47c-14.65,0-24.54,10.43-24.54,29.25
		c0,17.31,9.75,28.61,23.63,28.61c7.43,0,15.53-3.09,18.07-9.34h0.22c-0.11,0.74-0.19,1.48-0.22,2.23v2.76
		c0,2.02,1.2,3.04,3.59,3.04h2.6c2.39,0,3.58-1.2,3.58-3.58V91.49C183.16,89.1,181.96,87.9,179.57,87.9 M157.53,135.34
		c-9.25,0-15.1-8.69-15.1-19.92c0-10.54,4.23-19.7,15.58-19.7c8.7,0,14.83,7.72,14.83,19.7
		C172.84,127.31,166.65,135.34,157.53,135.34L157.53,135.34z"/>
	<path class="st0" d="M196.3,138.18c-0.84-0.42-1.41-1.24-1.52-2.17c-0.05-0.96,0.22-1.92,0.76-2.71l1.09-1.52
		c0.5-0.79,1.31-1.34,2.23-1.52c0.98-0.02,1.94,0.25,2.77,0.76c1.68,1.04,3.42,1.99,5.21,2.82c2.59,1.16,5.41,1.71,8.25,1.63
		c2.39,0.11,4.75-0.56,6.73-1.9c1.72-1.23,2.7-3.26,2.6-5.37c0.05-1.71-0.74-3.33-2.12-4.34c-1.63-1.21-3.4-2.21-5.27-2.99
		c-2.1-0.9-4.36-1.77-6.79-2.61c-2.38-0.81-4.66-1.9-6.79-3.26c-2.06-1.3-3.84-2.97-5.27-4.94c-1.5-2.24-2.24-4.91-2.12-7.6
		c-0.05-2.4,0.49-4.76,1.57-6.9c1.02-1.96,2.49-3.65,4.29-4.94c1.93-1.36,4.08-2.37,6.35-2.99c2.49-0.7,5.07-1.04,7.66-1.03
		c3.23-0.1,6.46,0.42,9.5,1.52c1.97,0.76,3.87,1.67,5.7,2.71c0.88,0.35,1.54,1.1,1.79,2.01c0.15,0.97-0.06,1.95-0.6,2.77l-0.98,1.63
		c-1.01,1.81-2.61,2.21-4.78,1.19c-1.46-0.79-2.96-1.48-4.51-2.06c-2.14-0.77-4.4-1.14-6.68-1.09c-2.31-0.08-4.6,0.53-6.57,1.74
		c-1.76,1.13-2.78,3.12-2.66,5.21c-0.04,1.72,0.74,3.36,2.12,4.4c1.61,1.24,3.38,2.24,5.27,2.99c2.1,0.87,4.36,1.74,6.79,2.61
		c2.36,0.84,4.64,1.91,6.79,3.2c2.08,1.25,3.87,2.91,5.27,4.89c1.49,2.27,2.23,4.95,2.12,7.66c0.04,4.5-1.95,8.77-5.43,11.62
		c-1.85,1.51-3.97,2.65-6.24,3.37c-2.62,0.83-5.35,1.23-8.09,1.19c-2.13,0.02-4.26-0.18-6.35-0.6c-1.76-0.35-3.49-0.86-5.16-1.52
		c-1.4-0.56-2.76-1.21-4.07-1.95C198.17,139.52,197.21,138.89,196.3,138.18"/>
	<path class="st0" d="M287.14,76.93c-2.39,0-3.58-1.2-3.58-3.58v-3.58c0-2.39,1.2-3.58,3.58-3.58h3.69c2.39,0,3.58,1.19,3.58,3.58
		v3.58c0,2.39-1.19,3.59-3.58,3.58H287.14z M283.66,91.49c0-2.39,1.19-3.58,3.58-3.58h3.37c2.39,0,3.58,1.2,3.58,3.58v48.09
		c0,2.39-1.2,3.58-3.58,3.58h-3.37c-2.39,0-3.58-1.2-3.58-3.58V91.49z"/>
	<path class="st0" d="M348.18,137.16c0.69,1.41,0.14,3.11-1.24,3.86c-4.11,2.13-8.67,3.21-13.3,3.14
		c-19.55,0-27.81-14.7-27.81-28.78c0-13.81,8.76-28.78,27.36-28.78c4.39-0.07,8.74,0.93,12.66,2.92c1.42,0.74,1.99,2.48,1.27,3.91
		l-1.33,2.68c-0.68,1.38-2.32,1.99-3.74,1.39c-2.47-1.11-5.15-1.71-7.86-1.76c-11.4,0-17.6,6.16-17.6,19.55
		c0,11.43,5.99,19.77,17.82,19.77c3.02-0.02,6.01-0.68,8.76-1.92c1.43-0.61,3.08,0.01,3.75,1.41
		C347.31,135.39,347.77,136.32,348.18,137.16"/>
	<path class="st0" d="M261.17,139.57c0,1.98-1.6,3.58-3.58,3.58h-3.37c-1.98,0-3.59-1.6-3.59-3.58V97.02h-5.69
		c-2.32,0-3.48-1.19-3.48-3.58v-1.98c0-1.67,1.35-3.02,3.02-3.02h6.36V76.39c0-1.98,1.6-3.58,3.58-3.58h3.15
		c1.98,0,3.58,1.6,3.58,3.58v12.06h10.12c1.67,0,3.02,1.35,3.02,3.02v1.98c0,2.39-1.16,3.59-3.48,3.58h-9.67L261.17,139.57z"/>
	<path class="st0" d="M72.36,265.34c0-2.5,2.03-4.52,4.52-4.52h0h36.42c1.98,0,3.58,1.6,3.58,3.58v0v2.17c0,1.98-1.6,3.58-3.58,3.58
		h0h-30.3v24h24c1.98,0,3.58,1.6,3.58,3.58v0v2.17c0,1.98-1.6,3.58-3.58,3.58h-24v24.65h32.14c1.98,0,3.58,1.6,3.59,3.58v2.17
		c0,1.98-1.61,3.58-3.59,3.58H76.89c-2.5,0-4.53-2.03-4.53-4.53V265.34z"/>
	<path class="st0" d="M129.81,286.12c0-2.39,1.19-3.58,3.58-3.58h3.04c2.39,0,3.59,1.19,3.58,3.58V291c0,0.73-0.07,1.46-0.22,2.17
		c-0.08,0.32-0.11,0.65-0.11,0.98h0.22c0.72-1.71,1.69-3.3,2.88-4.73c1.29-1.57,2.78-2.96,4.45-4.12c1.72-1.2,3.58-2.19,5.54-2.93
		c1.99-0.76,4.11-1.15,6.24-1.14c9.05,0,14.55,4.16,16.51,12.49h0.22c0.79-1.69,1.81-3.26,3.04-4.67c1.31-1.52,2.8-2.87,4.45-4.02
		c1.71-1.18,3.57-2.11,5.54-2.77c2.07-0.69,4.23-1.04,6.41-1.03c6.3,0,10.9,1.76,13.79,5.27c2.9,3.51,4.34,8.78,4.34,15.8v31.9
		c0,2.39-1.2,3.58-3.58,3.58h-3.37c-2.39,0-3.59-1.19-3.58-3.58v-29.62c0.01-1.82-0.12-3.63-0.38-5.43
		c-0.21-1.52-0.68-2.99-1.41-4.34c-0.69-1.23-1.7-2.24-2.93-2.93c-1.52-0.78-3.23-1.16-4.94-1.09c-2.4-0.04-4.77,0.58-6.84,1.79
		c-2.04,1.21-3.8,2.84-5.16,4.78c-1.44,2.06-2.53,4.36-3.2,6.79c-0.72,2.51-1.08,5.1-1.09,7.71v22.35c0,2.39-1.16,3.58-3.47,3.58
		h-3.48c-2.32,0-3.48-1.2-3.48-3.58v-29.62c0-1.74-0.1-3.48-0.33-5.21c-0.18-1.53-0.62-3.02-1.3-4.4c-0.65-1.27-1.65-2.32-2.88-3.04
		c-1.55-0.83-3.29-1.22-5.05-1.14c-2.46-0.04-4.88,0.6-7,1.84c-2.06,1.23-3.83,2.87-5.21,4.83c-1.44,2.06-2.53,4.36-3.2,6.79
		c-0.71,2.47-1.08,5.03-1.08,7.6v22.35c0,2.39-1.2,3.58-3.59,3.58h-3.38c-2.39,0-3.58-1.19-3.58-3.58V286.12z"/>
	<path class="st0" d="M294.77,271.56c-2.39,0-3.58-1.2-3.58-3.58v-3.58c0-2.39,1.19-3.58,3.58-3.58h3.69c2.39,0,3.58,1.2,3.58,3.58
		v3.58c0,2.39-1.19,3.58-3.58,3.58H294.77z M291.3,286.12c0-2.39,1.19-3.58,3.58-3.58h3.37c2.39,0,3.58,1.19,3.58,3.58v48.08
		c0,2.39-1.19,3.58-3.58,3.58h-3.37c-2.39,0-3.58-1.2-3.58-3.58V286.12z"/>
	<path class="st0" d="M327.57,334.2c0,2.39-1.2,3.58-3.59,3.58h-3.36c-2.39,0-3.58-1.2-3.58-3.58v-75.08c0-2.39,1.19-3.59,3.58-3.59
		h3.37c2.39,0,3.58,1.2,3.58,3.59L327.57,334.2z"/>
	<path class="st0" d="M272.4,282.53h-2.61c-2.39,0-3.58,1.01-3.58,3.04v2.73c0.01,0.72,0.08,1.45,0.22,2.16h-0.21
		c-0.81-1.76-2-3.31-3.47-4.56c-1.58-1.33-3.36-2.41-5.27-3.2c-2.67-1.06-5.54-1.56-8.42-1.47c-14.65,0-24.54,10.43-24.54,29.25
		c0,17.31,9.75,28.62,23.63,28.62c7.44,0,15.53-3.09,18.07-9.34h0.22c-0.11,0.74-0.19,1.48-0.22,2.23v2.76
		c0,2.02,1.2,3.04,3.58,3.04h2.61c2.39,0,3.58-1.2,3.58-3.58v-48.09C275.99,283.72,274.79,282.53,272.4,282.53 M250.36,329.97
		c-9.25,0-15.1-8.69-15.1-19.93c0-10.54,4.23-19.69,15.58-19.69c8.7,0,14.83,7.72,14.83,19.7
		C265.67,321.94,259.48,329.97,250.36,329.97"/>
	<g id="Logo_snow_vertical_00000137121234390581184370000003278261532748883122_">
		<g id="Logo_snow_vertical-2_00000053531240740505356800000017136707560341752710_" transform="translate(82.245 92.622)">
			<path id="Path_25675_00000029748216955481258850000017170753934632845240_" class="st0" d="M168.96,102.43
				c-3.7-4.81-9.15-7.97-15.17-8.79c-0.92-0.14-1.86-0.22-2.79-0.22h-8.32c-1.42-0.01-2.58,1.14-2.59,2.56v0.01l0,0v4.2
				c0,1.42,1.16,2.57,2.58,2.57c0,0,0.01,0,0.01,0h6.86c0.5,0,1,0.03,1.49,0.07c0.44,0.02,0.87,0.09,1.3,0.19
				c3.42,0.67,6.44,2.64,8.42,5.51c1.92,2.81,2.74,6.22,2.3,9.6c-0.44,3.4-2.14,6.52-4.76,8.72c-1.33,1.12-2.87,1.95-4.54,2.44
				c-1.89,0.42-3.83,0.6-5.77,0.56H85.71c-2.15-0.03-4.27-0.5-6.23-1.37c-3.07-1.6-5.4-4.33-6.5-7.61c-1.1-3.21-0.99-6.72,0.3-9.86
				c1.99-4.98,6.81-8.25,12.18-8.25h28.74l-8.47,9.34c-0.78,0.86-0.71,2.18,0.14,2.96c0,0,0,0,0,0l0,0l0.07,0.06l2.76,2.29
				c0.93,0.77,2.31,0.64,3.09-0.29l13.55-16.31c1.32-1.58,1.32-3.87,0-5.45l-13.55-16.31c-0.77-0.93-2.15-1.06-3.09-0.29l0,0
				l-2.77,2.3c-0.89,0.74-1.01,2.06-0.27,2.95l0.06,0.06l8.48,9.34H85.46c-2.95-0.02-5.89,0.48-8.67,1.47
				c-5.71,2.11-10.36,6.36-12.99,11.85c-2.59,5.59-2.8,11.98-0.59,17.73c2.24,5.67,6.61,10.22,12.19,12.68
				c2.69,1.31,5.63,2,8.62,2.04h63.93c2.77,0.04,5.54-0.2,8.27-0.7c2.9-0.75,5.63-2.04,8.06-3.8c10.16-7.36,12.42-21.56,5.06-31.72
				C169.22,102.78,169.09,102.61,168.96,102.43L168.96,102.43z"/>
		</g>
	</g>
</g>
</svg>
